<svg width="15" height="15" viewBox="0 0 15 15" fill="none" xmlns="http://www.w3.org/2000/svg">
<g clip-path="url(#clip0)">
<path d="M14.1773 4.09105C12.9336 1.6653 10.4084 0 7.5 0C4.59069 0 2.06511 1.66594 0.821746 4.09344C0.81681 4.10315 0.810918 4.11191 0.807097 4.1221C0.292173 5.1381 0 6.28529 0 7.5C0 8.71502 0.292173 9.86222 0.807097 10.8779C0.810918 10.8881 0.81681 10.8968 0.821746 10.9066C2.06479 13.3341 4.59069 15 7.5 15C10.4084 15 12.9336 13.335 14.1773 10.9089C14.1829 10.8981 14.1894 10.8884 14.1935 10.8769C14.7081 9.86127 15 8.71439 15 7.5C15 6.28561 14.7081 5.13874 14.1935 4.12306C14.1891 4.11159 14.1829 4.10188 14.1773 4.09105ZM13.6777 10.4348H10.8113C10.9706 9.63135 11.0651 8.75276 11.083 7.82609H14.3313C14.2872 8.75642 14.0582 9.63724 13.6777 10.4348ZM7.5 14.3478C6.46856 14.3478 5.54348 13.0255 5.01884 11.087H9.98116C9.45652 13.0255 8.53144 14.3478 7.5 14.3478ZM4.86296 10.4348C4.69435 9.63294 4.59229 8.75117 4.5727 7.82609H10.4276C10.4077 8.75117 10.3057 9.63294 10.1374 10.4348H4.86296ZM0.668733 7.82609H3.91702C3.93518 8.75276 4.02944 9.63135 4.18866 10.4348H1.32234C0.941799 9.63724 0.712838 8.75642 0.668733 7.82609ZM1.32234 4.56522H4.18866C4.02944 5.36865 3.93486 6.24724 3.91702 7.17391H0.668733C0.712838 6.24358 0.941799 5.36276 1.32234 4.56522ZM7.5 0.652174C8.53144 0.652174 9.45652 1.97451 9.98116 3.91304H5.01884C5.54348 1.97451 6.46856 0.652174 7.5 0.652174ZM10.137 4.56522C10.3057 5.36674 10.4077 6.24883 10.4273 7.17391H4.57238C4.59229 6.24883 4.69435 5.36674 4.86264 4.56522H10.137ZM11.083 7.17391C11.0648 6.24724 10.9706 5.36865 10.8113 4.56522H13.6777C14.0582 5.36276 14.2872 6.24358 14.3313 7.17391H11.083ZM13.322 3.91304H10.6637C10.3337 2.6192 9.82767 1.56388 9.20766 0.876518C10.9395 1.32361 12.4044 2.42909 13.322 3.91304ZM5.79202 0.876518C5.17233 1.56388 4.66632 2.6192 4.33594 3.91304H1.67772C2.59564 2.42909 4.06048 1.32361 5.79202 0.876518ZM1.67804 11.087H4.33594C4.66601 12.3808 5.17201 13.4361 5.79202 14.1235C4.06048 13.6764 2.59564 12.5706 1.67804 11.087ZM9.20798 14.1235C9.82767 13.4361 10.3337 12.3808 10.6641 11.087H13.322C12.4044 12.5706 10.9395 13.6764 9.20798 14.1235Z" fill="#707070"/>
</g>
<defs>
<clipPath id="clip0">
<rect width="15" height="15" fill="white"/>
</clipPath>
</defs>
</svg>
