<svg width="14" height="14" viewBox="0 0 14 14" fill="none" xmlns="http://www.w3.org/2000/svg">
<g clip-path="url(#clip0)">
<path d="M13.5 0H7.99996C7.86736 2.92971e-05 7.74021 0.0527348 7.64646 0.146515L0.146405 7.64657C-0.0488016 7.84184 -0.0488016 8.15833 0.146405 8.35357L5.64644 13.8536C5.8417 14.0488 6.1582 14.0488 6.35343 13.8536L13.8535 6.35354C13.9473 6.25979 14 6.13264 14 6.00005V0.500014C14 0.223859 13.7761 0 13.5 0ZM13 5.79303L5.99994 12.7931L1.2069 8.00007L8.20697 0.999998H13V5.79303Z" fill="#707070"/>
<path d="M10.5 2C9.67158 2 9 2.67158 9 3.50001C9 4.32845 9.67158 5.00002 10.5 5.00002C11.3284 5.00002 12 4.32845 12 3.50001C12 2.67158 11.3284 2 10.5 2ZM10.5 4C10.2239 4 10 3.77614 10 3.49998C10 3.22383 10.2239 2.99997 10.5 2.99997C10.7762 2.99997 11 3.22383 11 3.49998C11 3.77614 10.7762 4 10.5 4Z" fill="#707070"/>
</g>
<defs>
<clipPath id="clip0">
<rect width="14" height="14" fill="white"/>
</clipPath>
</defs>
</svg>
