<svg width="14" height="14" viewBox="0 0 14 14" fill="none" xmlns="http://www.w3.org/2000/svg">
<g clip-path="url(#clip0)">
<path d="M12.11 6.27667L8.95008 3.9025C8.93025 3.88675 8.89583 3.85117 8.89583 3.79167C8.89583 3.73217 8.93025 3.69658 8.9425 3.68608L12.1106 1.30608C12.292 1.16958 12.3958 0.959 12.3958 0.728583C12.3958 0.32725 12.0686 0 11.6667 0H2.33333C2.01075 0 1.75 0.261333 1.75 0.583333V13.4167C1.75 13.7387 2.01075 14 2.33333 14C2.65592 14 2.91667 13.7387 2.91667 13.4167V7.58333H11.6667C12.0686 7.58333 12.3958 7.25608 12.3958 6.85417C12.3958 6.62375 12.2914 6.41375 12.11 6.27667Z" fill="#707070"/>
</g>
<defs>
<clipPath id="clip0">
<rect width="14" height="14" fill="white"/>
</clipPath>
</defs>
</svg>
