<svg width="16" height="16" viewBox="0 0 16 16" fill="none" xmlns="http://www.w3.org/2000/svg">
<g clip-path="url(#clip0)">
<path d="M11.12 2.02L5.78667 0.02C5.70667 -0.00666667 5.62667 -0.00666667 5.54667 0.02L0.213333 2.02C0.0866667 2.06667 0 2.19333 0 2.33333V6.62C0 12.7 5.54 13.98 5.59333 13.9933C5.62 14 5.64 14 5.66667 14C5.69333 14 5.71333 14 5.74 13.9933C5.75333 13.9933 6.01333 13.9333 6.41333 13.78C6.14667 13.1267 6 12.4133 6 11.6667C6 8.65333 8.36 6.18 11.3333 6.00667V2.33333C11.3333 2.19333 11.2467 2.06667 11.12 2.02Z" fill="white"/>
<path d="M11.6668 7.33325C9.2775 7.33325 7.3335 9.27725 7.3335 11.6666C7.3335 14.0559 9.2775 15.9999 11.6668 15.9999C14.0562 15.9999 16.0002 14.0559 16.0002 11.6666C16.0002 9.27725 14.0562 7.33325 11.6668 7.33325ZM11.6668 8.66658C12.2528 8.66658 12.7955 8.84191 13.2575 9.13325L9.1335 13.2572C8.84216 12.7946 8.66683 12.2519 8.66683 11.6666C8.66683 10.0126 10.0128 8.66658 11.6668 8.66658ZM11.6668 14.6666C11.0808 14.6666 10.5382 14.4912 10.0762 14.1999L14.2008 10.0759C14.4922 10.5379 14.6675 11.0806 14.6675 11.6666C14.6668 13.3206 13.3208 14.6666 11.6668 14.6666Z" fill="white"/>
</g>
<defs>
<clipPath id="clip0">
<rect width="16" height="16" fill="white"/>
</clipPath>
</defs>
</svg>
