<svg width="16" height="16" viewBox="0 0 16 16" fill="none" xmlns="http://www.w3.org/2000/svg">
<path d="M14.9997 0.000244141H6.99998C6.44775 0.000244141 6 0.447999 6 1.00022V5.39726L9.03653 8.00002L6 10.6028V14.9998C6 15.552 6.44775 15.9998 6.99998 15.9998H14.9998C15.552 15.9998 15.9997 15.552 15.9997 14.9998V1.00022C15.9997 0.447969 15.552 0.000244141 14.9997 0.000244141ZM12.9998 8.99996C12.4475 8.99996 11.9998 8.55221 11.9998 7.99998C11.9998 7.4477 12.4475 7.00001 12.9998 7.00001C13.5521 7.00001 13.9998 7.4477 13.9998 7.99998C13.9998 8.55224 13.5521 8.99996 12.9998 8.99996Z" fill="white"/>
<path d="M7.50025 8.00015L4.00037 5.00024V7.00017H0L0.000976631 9.0001L4.00037 8.99894V11L7.50025 8.00015Z" fill="white"/>
</svg>
