<svg width="14" height="17" viewBox="0 0 14 17" fill="none" xmlns="http://www.w3.org/2000/svg">
<path d="M10.5148 0H0.473145C0.21427 0 0.00439453 0.222992 0.00439453 0.498047V13.3012C0.00439453 13.5763 0.21427 13.7993 0.473145 13.7993H10.5148C10.7737 13.7993 10.9836 13.5763 10.9836 13.3012V0.498047C10.9836 0.222992 10.7737 0 10.5148 0Z" fill="white"/>
<path d="M13.5273 3.20079H11.9211V13.3012C11.9211 14.1251 11.2903 14.7953 10.5148 14.7953H3.0169V16.502C3.0169 16.777 3.22677 17 3.48565 17H13.5273C13.7862 17 13.9961 16.777 13.9961 16.502V3.69883C13.9961 3.42378 13.7862 3.20079 13.5273 3.20079Z" fill="white"/>
</svg>
