<svg width="18" height="17" viewBox="0 0 18 17" fill="none" xmlns="http://www.w3.org/2000/svg">
<path d="M9 6.66797C10.6892 6.66797 12.0586 5.22251 12.0586 3.43945C12.0586 1.65639 10.6892 0.210938 9 0.210938C7.31079 0.210938 5.94141 1.65639 5.94141 3.43945C5.94141 5.22251 7.31079 6.66797 9 6.66797Z" fill="white"/>
<path d="M15.1875 6.66794C16.2554 6.66794 17.1211 5.75414 17.1211 4.62692C17.1211 3.4997 16.2554 2.5859 15.1875 2.5859C14.1196 2.5859 13.2539 3.4997 13.2539 4.62692C13.2539 5.75414 14.1196 6.66794 15.1875 6.66794Z" fill="white"/>
<path d="M2.8125 6.66794C3.88039 6.66794 4.74609 5.75414 4.74609 4.62692C4.74609 3.4997 3.88039 2.5859 2.8125 2.5859C1.74461 2.5859 0.878906 3.4997 0.878906 4.62692C0.878906 5.75414 1.74461 6.66794 2.8125 6.66794Z" fill="white"/>
<path d="M4.71762 8.5008C3.95648 7.84255 3.26718 7.92969 2.38711 7.92969C1.07086 7.92969 0 9.05336 0 10.4342V14.4869C0 15.0866 0.463711 15.5742 1.03395 15.5742C3.4958 15.5742 3.19922 15.6212 3.19922 15.4621C3.19922 12.5904 2.87698 10.4844 4.71762 8.5008Z" fill="white"/>
<path d="M9.83706 7.9445C8.29989 7.80916 6.96378 7.94605 5.81132 8.95016C3.88275 10.5807 4.2539 12.7762 4.2539 15.4621C4.2539 16.1727 4.80163 16.7617 5.48507 16.7617C12.9059 16.7617 13.2013 17.0144 13.6413 15.9857C13.7856 15.6379 13.7461 15.7484 13.7461 12.4206C13.7461 9.77748 11.5779 7.9445 9.83706 7.9445Z" fill="white"/>
<path d="M15.6129 7.92965C14.728 7.92965 14.0425 7.84341 13.2824 8.50076C15.1093 10.4696 14.8008 12.4319 14.8008 15.4621C14.8008 15.6222 14.5546 15.5742 16.9291 15.5742C17.5198 15.5742 18 15.0691 18 14.4483V10.4342C18 9.05332 16.9291 7.92965 15.6129 7.92965Z" fill="white"/>
</svg>
