<svg width="18" height="17" viewBox="0 0 18 17" fill="none" xmlns="http://www.w3.org/2000/svg">
<path d="M16.1249 4.64052H15.2809V2.06792C15.2809 0.976708 14.4398 0.0888062 13.4058 0.0888062H4.59384C3.55993 0.0888062 2.71895 0.976708 2.71895 2.06792V4.64059H1.87495C0.839724 4.64052 0 5.5267 0 6.61977V14.9322C0 16.0253 0.83941 16.9111 1.87495 16.9111H16.1249C17.1602 16.9111 18 16.0252 18 14.9322V6.61977C18 5.5267 17.1605 4.64052 16.1249 4.64052ZM12.6908 11.7187C12.6908 12.0348 12.4482 12.2905 12.1491 12.2905H10.4346V14.0993C10.4346 14.4153 10.192 14.6714 9.89294 14.6714H8.10725C7.80815 14.6714 7.56569 14.4153 7.56569 14.0993V12.2905H5.8511C5.55231 12.2905 5.30935 12.0348 5.30935 11.7187V9.83383C5.30935 9.51738 5.55193 9.26171 5.8511 9.26171H7.56556V7.45273C7.56556 7.13701 7.80802 6.88061 8.10713 6.88061H9.89281C10.1919 6.88061 10.4345 7.13701 10.4345 7.45273V9.26171H12.149C12.4481 9.26171 12.6907 9.51745 12.6907 9.83383V11.7187H12.6908ZM13.7813 4.64052H4.21861V2.06792C4.21861 1.84928 4.38696 1.67218 4.59352 1.67218H13.4058C13.6127 1.67218 13.7813 1.84961 13.7813 2.06792V4.64052Z" fill="white"/>
</svg>
