<svg width="15" height="15" viewBox="0 0 15 15" fill="none" xmlns="http://www.w3.org/2000/svg">
<path d="M15 7.50001C15 7.0288 14.9558 6.55715 14.8683 6.09924C14.8288 5.89197 14.6472 5.74217 14.4365 5.74217H7.5293C7.2864 5.74217 7.08984 5.93872 7.08984 6.18163V8.81834C7.08984 9.06124 7.2864 9.2578 7.5293 9.2578H11.0733C10.8524 9.70481 10.5481 10.0927 10.1908 10.419L12.6746 12.9028C14.1037 11.5412 15 9.62518 15 7.50001Z" fill="white"/>
<path d="M7.50011 3.51562C8.36228 3.51562 9.18239 3.78943 9.8716 4.30784C10.0458 4.43874 10.2917 4.42286 10.4462 4.26706L12.3216 2.39165C12.4088 2.30452 12.4555 2.18479 12.45 2.06162C12.4444 1.93846 12.3877 1.82344 12.2933 1.74404C10.9514 0.619277 9.2489 0 7.50011 0C4.92641 0 2.65271 1.30822 1.30859 3.29449L3.88812 5.87402C4.50354 4.48781 5.88816 3.51562 7.50011 3.51562Z" fill="white"/>
<path d="M7.50011 15C9.17773 15 10.7226 14.4375 11.9709 13.5004L9.44047 10.97C8.86209 11.2956 8.20104 11.4844 7.50011 11.4844C5.88816 11.4844 4.50354 10.5122 3.88812 9.12598L1.30859 11.7055C2.65271 13.6918 4.92641 15 7.50011 15Z" fill="white"/>
<path d="M3.57961 8.13298C3.54595 7.92559 3.51562 7.71673 3.51562 7.50002C3.51562 7.28331 3.54595 7.07445 3.57961 6.86706L0.82207 4.10952C0.300352 5.12847 0 6.27881 0 7.50002C0 8.72123 0.300352 9.87157 0.8221 10.8905L3.57961 8.13298Z" fill="white"/>
</svg>
