<svg width="15" height="15" viewBox="0 0 15 15" fill="none" xmlns="http://www.w3.org/2000/svg">
<path d="M4.06036 0H10.9396C13.1785 0 15 1.82144 15 4.06036V10.9397C15 13.1785 13.1785 15 10.9396 15H4.06024C1.82144 15 0 13.1785 0 10.9397V4.06036C0 1.82144 1.82144 0 4.06036 0ZM7.49999 11.6014C9.76156 11.6014 11.6014 9.76156 11.6014 7.49999C11.6014 5.23841 9.76156 3.39855 7.49999 3.39855C5.23841 3.39855 3.39855 5.23841 3.39855 7.49999C3.39855 9.76156 5.23841 11.6014 7.49999 11.6014ZM3.30047 4.3658C3.9688 4.3658 4.5124 3.8222 4.5124 3.15387C4.5124 2.48554 3.9688 1.94183 3.30047 1.94183C2.63214 1.94183 2.08843 2.48554 2.08843 3.15387C2.08843 3.8222 2.63214 4.3658 3.30047 4.3658Z" fill="#204275"/>
<path d="M7.5 4.2779C9.27657 4.2779 10.7221 5.72329 10.7221 7.49998C10.7221 9.27655 9.27657 10.7221 7.5 10.7221C5.7233 10.7221 4.27792 9.27655 4.27792 7.49998C4.27792 5.72329 5.7233 4.2779 7.5 4.2779Z" fill="#204275"/>
</svg>
