<svg width="16" height="16" viewBox="0 0 16 16" fill="none" xmlns="http://www.w3.org/2000/svg">
<g clip-path="url(#clip0)">
<path d="M3.73894 3.24421L10.1174 1.50317L9.77959 0.820403C9.55859 0.376608 9.01957 0.19334 8.57577 0.414339L2.86572 3.24421H3.73894Z" fill="white"/>
<path d="M12.0976 1.55347C12.0186 1.55347 11.9395 1.56425 11.8604 1.58581L10.362 1.99546L5.78564 3.24419H10.98H13.2439L12.9636 2.21646C12.8558 1.81579 12.4929 1.55347 12.0976 1.55347Z" fill="white"/>
<path d="M14.1799 3.87305H13.9751H13.6966H13.4181H11.2925H3.48209H2.45795H1.59551H1.4356H0.900168C0.616283 3.87305 0.362942 4.00421 0.197642 4.21083C0.122179 4.30606 0.0646828 4.41566 0.0323414 4.53605C0.0125772 4.61151 0 4.69057 0 4.77142V4.87922V5.90337V14.7811C0 15.277 0.402471 15.6794 0.898372 15.6794H14.1781C14.674 15.6794 15.0765 15.277 15.0765 14.7811V12.2746H9.74554C8.90286 12.2746 8.2183 11.5901 8.2183 10.7474V9.92448V9.64598V9.36749V8.74941C8.2183 8.33616 8.38359 7.96066 8.65132 7.68575C8.88849 7.44138 9.20651 7.27608 9.56227 7.23475C9.62156 7.22759 9.68265 7.22397 9.74374 7.22397H14.329H14.6075H14.886H15.0765V4.77142C15.0783 4.27552 14.6758 3.87305 14.1799 3.87305Z" fill="white"/>
<path d="M15.7072 8.08277C15.6174 8.00012 15.5113 7.93723 15.3928 7.89591C15.3011 7.86538 15.2041 7.84741 15.1017 7.84741H15.0783H15.0604H14.7819H13.7775H9.74555C9.24962 7.84741 8.84717 8.24986 8.84717 8.74578V9.19316V9.47165V9.75015V10.7455C8.84717 11.2414 9.24962 11.6439 9.74555 11.6439H15.0783H15.1017C15.2041 11.6439 15.3011 11.6259 15.3928 11.5954C15.5113 11.5559 15.6174 11.4912 15.7072 11.4085C15.8869 11.245 16.0001 11.0079 16.0001 10.7456V8.74578C16.0001 8.48344 15.8869 8.24625 15.7072 8.08277ZM11.6214 9.92443C11.6214 10.1724 11.4201 10.3736 11.1722 10.3736H10.8739C10.626 10.3736 10.4247 10.1724 10.4247 9.92443V9.62617C10.4247 9.48243 10.4912 9.35484 10.5972 9.27399C10.6745 9.2147 10.7697 9.17698 10.8739 9.17698H10.9494H11.1722C11.4201 9.17698 11.6214 9.3782 11.6214 9.62617V9.92443Z" fill="white"/>
</g>
<defs>
<clipPath id="clip0">
<rect width="16" height="16" fill="white"/>
</clipPath>
</defs>
</svg>
