<svg width="16" height="16" viewBox="0 0 16 16" fill="none" xmlns="http://www.w3.org/2000/svg">
<g clip-path="url(#clip0)">
<path d="M15.3038 5.58188L10.8977 5.16525C10.6199 5.14 10.3799 4.96324 10.2664 4.69811L8.68825 0.872621C8.43574 0.241353 7.53921 0.241353 7.2867 0.872621L5.72116 4.69811C5.62016 4.96324 5.36765 5.14 5.08989 5.16525L0.683638 5.58188C0.027119 5.64501 -0.238014 6.46566 0.254376 6.90755L3.57485 9.82401C3.78948 10.0134 3.87786 10.2911 3.81473 10.5689L2.81733 14.6594C2.66582 15.3034 3.36022 15.8336 3.94098 15.4928L7.61496 13.3337C7.85485 13.1949 8.14523 13.1949 8.38511 13.3337L12.0592 15.4928C12.64 15.8336 13.3344 15.316 13.1828 14.6594L12.198 10.5689C12.1348 10.2911 12.2232 10.0134 12.4379 9.82401L15.7583 6.90755C16.2381 6.46566 15.9603 5.64501 15.3038 5.58188Z" fill="white"/>
</g>
<defs>
<clipPath id="clip0">
<rect width="16" height="16.0001" fill="white"/>
</clipPath>
</defs>
</svg>
