<svg width="15" height="9" viewBox="0 0 15 9" fill="none" xmlns="http://www.w3.org/2000/svg">
<path d="M12.4469 5.1425C12.2044 4.83625 12.2738 4.7 12.4469 4.42625C12.45 4.42313 14.4519 1.65688 14.6581 0.71875L14.6594 0.718125C14.7619 0.37625 14.6594 0.125 14.1638 0.125H12.5238C12.1063 0.125 11.9138 0.340625 11.8106 0.581875C11.8106 0.581875 10.9756 2.58063 9.79438 3.87625C9.41313 4.25063 9.23688 4.37063 9.02875 4.37063C8.92625 4.37063 8.76688 4.25063 8.76688 3.90875V0.718125C8.76688 0.308125 8.65 0.125 8.30438 0.125H5.72563C5.46375 0.125 5.30813 0.31625 5.30813 0.494375C5.30813 0.883125 5.89875 0.9725 5.96 2.06625V4.43938C5.96 4.95938 5.86563 5.055 5.65625 5.055C5.09875 5.055 3.74563 3.04813 2.94375 0.75125C2.78188 0.305625 2.62375 0.125625 2.20313 0.125625H0.5625C0.094375 0.125625 0 0.34125 0 0.5825C0 1.00875 0.5575 3.12813 2.5925 5.92813C3.94875 7.83938 5.85875 8.875 7.59625 8.875C8.64063 8.875 8.76813 8.645 8.76813 8.24938C8.76813 6.42313 8.67375 6.25063 9.19688 6.25063C9.43938 6.25063 9.85688 6.37063 10.8319 7.2925C11.9463 8.38563 12.1294 8.875 12.7531 8.875H14.3931C14.8606 8.875 15.0975 8.645 14.9613 8.19125C14.6494 7.23688 12.5419 5.27375 12.4469 5.1425Z" fill="#204275"/>
</svg>
