<svg width="17" height="13" viewBox="0 0 17 13" fill="none" xmlns="http://www.w3.org/2000/svg">
<g clip-path="url(#clip0)">
<path d="M14.7777 7.90233C15.7595 7.90233 16.5554 7.12785 16.5554 6.17248C16.5554 5.21711 15.7595 4.44263 14.7777 4.44263C13.7959 4.44263 13 5.21711 13 6.17248C13 7.12785 13.7959 7.90233 14.7777 7.90233Z" fill="#707070"/>
<path d="M12.3819 5.82861H0V6.51778H12.3819V5.82861Z" fill="#707070"/>
<path d="M1.77771 0.0544434C0.796783 0.0544434 0 0.833206 0 1.78426C0 2.73878 0.796783 3.51411 1.77771 3.51411C2.75864 3.51411 3.55542 2.73878 3.55542 1.78426C3.55539 0.833206 2.75864 0.0544434 1.77771 0.0544434Z" fill="#707070"/>
<path d="M17.0001 1.44067H4.61816V2.12984H17.0001V1.44067Z" fill="#707070"/>
<path d="M1.7782 12.2906C2.76 12.2906 3.55591 11.5161 3.55591 10.5608C3.55591 9.60541 2.76 8.83093 1.7782 8.83093C0.796397 8.83093 0.000488281 9.60541 0.000488281 10.5608C0.000488281 11.5161 0.796397 12.2906 1.7782 12.2906Z" fill="#707070"/>
<path d="M17.0001 10.2196H4.61816V10.9088H17.0001V10.2196Z" fill="#707070"/>
</g>
<defs>
<clipPath id="clip0">
<rect width="17" height="13" fill="white"/>
</clipPath>
</defs>
</svg>
