<?xml version="1.0" encoding="UTF-8" standalone="no"?> <svg xmlns="http://www.w3.org/2000/svg" viewBox="0 0 32 32"><defs><style>.cls-1{fill:#1a1a1a;}</style></defs><title>Attachment, paper clip</title><g id="_06" data-name="06"><path class="cls-1" d="M10,28.42a5,5,0,0,1-3.54-8.53l8.84-8.84a3.59,3.59,0,0,1,4.95,0,3.51,3.51,0,0,1,0,4.95l-5.3,5.3a1,1,0,0,1-1.42,0,1,1,0,0,1,0-1.41l5.31-5.3a1.51,1.51,0,0,0,.43-1.06,1.53,1.53,0,0,0-.43-1.07,1.56,1.56,0,0,0-2.13,0L7.83,21.3a3,3,0,1,0,4.24,4.25L23.74,13.88a4.5,4.5,0,1,0-6.37-6.37L10,14.94a1,1,0,0,1-1.42,0,1,1,0,0,1,0-1.41L16,6.1a6.5,6.5,0,0,1,9.19,9.19L13.48,27A5,5,0,0,1,10,28.42Z"/></g></svg>