<svg width="17" height="17" viewBox="0 0 17 17" fill="none" xmlns="http://www.w3.org/2000/svg">
<path d="M16.2917 0H0.708322C0.316625 0 0 0.317322 0 0.708322V16.2916C0 16.6827 0.316625 17 0.708322 17H16.2916C16.6833 17 17 16.6827 17 16.2917V0.708322C17 0.317322 16.6834 0 16.2917 0ZM5.45913 12.9576C5.73607 13.2345 5.73607 13.6822 5.45913 13.9591C5.321 14.0972 5.13968 14.1667 4.95832 14.1667C4.777 14.1667 4.59564 14.0972 4.45752 13.9591L4.25 13.7516L4.04245 13.9591C3.90432 14.0972 3.723 14.1667 3.54164 14.1667C3.36032 14.1667 3.17897 14.0972 3.04084 13.9591C2.76389 13.6822 2.76389 13.2345 3.04084 12.9576L3.24843 12.75L3.04087 12.5424C2.76393 12.2655 2.76393 11.8178 3.04087 11.5409C3.31782 11.2639 3.7655 11.2639 4.04245 11.5409L4.25 11.7484L4.45755 11.5409C4.7345 11.2639 5.18218 11.2639 5.45913 11.5409C5.73607 11.8178 5.73607 12.2655 5.45913 12.5424L5.25157 12.75L5.45913 12.9576ZM5.45913 8.70755C5.73607 8.9845 5.73607 9.43218 5.45913 9.70912C5.321 9.84725 5.13968 9.91668 4.95832 9.91668C4.777 9.91668 4.59564 9.84725 4.45752 9.70912L4.25 9.50157L4.04245 9.70912C3.90432 9.84725 3.723 9.91668 3.54164 9.91668C3.36032 9.91668 3.17897 9.84725 3.04084 9.70912C2.76389 9.43218 2.76389 8.9845 3.04084 8.70755L3.24843 8.5L3.04087 8.29245C2.76393 8.0155 2.76393 7.56782 3.04087 7.29087C3.31782 7.01393 3.7655 7.01393 4.04245 7.29087L4.25 7.49843L4.45755 7.29087C4.7345 7.01393 5.18218 7.01393 5.45913 7.29087C5.73607 7.56782 5.73607 8.0155 5.45913 8.29245L5.25157 8.5L5.45913 8.70755ZM5.45913 4.45755C5.73607 4.7345 5.73607 5.18218 5.45913 5.45913C5.321 5.59725 5.13968 5.66668 4.95832 5.66668C4.777 5.66668 4.59564 5.59725 4.45752 5.45913L4.25 5.25157L4.04245 5.45913C3.90432 5.59725 3.723 5.66668 3.54164 5.66668C3.36032 5.66668 3.17897 5.59725 3.04084 5.45913C2.76389 5.18218 2.76389 4.7345 3.04084 4.45755L3.24843 4.25L3.04087 4.04245C2.76393 3.7655 2.76393 3.31782 3.04087 3.04087C3.31782 2.76393 3.7655 2.76393 4.04245 3.04087L4.25 3.24843L4.45755 3.04087C4.7345 2.76393 5.18218 2.76393 5.45913 3.04087C5.73607 3.31782 5.73607 3.7655 5.45913 4.04245L5.25157 4.25L5.45913 4.45755ZM13.4583 13.4583H7.79168C7.39998 13.4583 7.08336 13.141 7.08336 12.75C7.08336 12.359 7.39998 12.0417 7.79168 12.0417H13.4584C13.8501 12.0417 14.1667 12.359 14.1667 12.75C14.1667 13.141 13.8501 13.4583 13.4583 13.4583ZM13.4583 9.20832H7.79168C7.39998 9.20832 7.08336 8.891 7.08336 8.5C7.08336 8.109 7.39998 7.79168 7.79168 7.79168H13.4584C13.8501 7.79168 14.1667 8.109 14.1667 8.5C14.1667 8.891 13.8501 9.20832 13.4583 9.20832ZM13.4583 4.95832H7.79168C7.39998 4.95832 7.08336 4.641 7.08336 4.25C7.08336 3.859 7.39998 3.54168 7.79168 3.54168H13.4584C13.8501 3.54168 14.1667 3.859 14.1667 4.25C14.1667 4.641 13.8501 4.95832 13.4583 4.95832Z" fill="#92A2BB"/>
</svg>
