<svg width="17" height="17" viewBox="0 0 17 17" fill="none" xmlns="http://www.w3.org/2000/svg">
<path d="M8.50002 0C3.81317 0 0 3.81317 0 8.50002C0 13.1869 3.81317 17 8.50002 17C13.1869 17 17 13.1869 17 8.50002C17 3.81317 13.1868 0 8.50002 0ZM9.05292 13.5433C8.64909 13.6106 7.84555 13.7787 7.43751 13.8125C7.09211 13.8411 6.76618 13.6434 6.56749 13.3596C6.36828 13.0758 6.32055 12.7127 6.43881 12.3869L8.04554 7.96878H6.375C6.37357 7.04817 7.0641 6.37127 7.94728 6.11148C8.36875 5.98748 9.154 5.81778 9.56249 5.84379C9.80723 5.85935 10.2338 6.0129 10.4325 6.29671C10.6317 6.58049 10.6795 6.94366 10.5612 7.26946L8.95446 11.6875H10.6245C10.6248 12.6071 9.96003 13.3921 9.05292 13.5433ZM9.56249 5.31252C8.97567 5.31252 8.49998 4.83676 8.49998 4.25001C8.49998 3.66319 8.97567 3.1875 9.56249 3.1875C10.1493 3.1875 10.625 3.66319 10.625 4.25001C10.625 4.8368 10.1493 5.31252 9.56249 5.31252Z" fill="white"/>
</svg>
