<svg width="13" height="17" viewBox="0 0 13 17" fill="none" xmlns="http://www.w3.org/2000/svg">
<path d="M1.51953 17H11.4805C12.3044 17 12.9746 16.3298 12.9746 15.5059V4.98047H9.48828C8.66438 4.98047 7.99414 4.31023 7.99414 3.48633V0H1.51953C0.695629 0 0.0253906 0.670238 0.0253906 1.49414V15.5059C0.0253906 16.3298 0.695629 17 1.51953 17ZM3.51172 7.00586H9.48828C9.76357 7.00586 9.98633 7.22862 9.98633 7.50391C9.98633 7.77919 9.76357 8.00195 9.48828 8.00195H3.51172C3.23643 8.00195 3.01367 7.77919 3.01367 7.50391C3.01367 7.22862 3.23643 7.00586 3.51172 7.00586ZM3.51172 8.99805H9.48828C9.76357 8.99805 9.98633 9.22081 9.98633 9.49609C9.98633 9.77138 9.76357 9.99414 9.48828 9.99414H3.51172C3.23643 9.99414 3.01367 9.77138 3.01367 9.49609C3.01367 9.22081 3.23643 8.99805 3.51172 8.99805ZM3.51172 10.9902H9.48828C9.76357 10.9902 9.98633 11.213 9.98633 11.4883C9.98633 11.7636 9.76357 11.9863 9.48828 11.9863H3.51172C3.23643 11.9863 3.01367 11.7636 3.01367 11.4883C3.01367 11.213 3.23643 10.9902 3.51172 10.9902ZM3.51172 12.9824H7.49609C7.77138 12.9824 7.99414 13.2052 7.99414 13.4805C7.99414 13.7558 7.77138 13.9785 7.49609 13.9785H3.51172C3.23643 13.9785 3.01367 13.7558 3.01367 13.4805C3.01367 13.2052 3.23643 12.9824 3.51172 12.9824Z" fill="white"/>
<path d="M9.48828 3.98437H12.6828L8.99023 0.291821V3.48633C8.99023 3.76112 9.21349 3.98437 9.48828 3.98437Z" fill="white"/>
</svg>
