<svg width="16" height="16" viewBox="0 0 16 16" fill="none" xmlns="http://www.w3.org/2000/svg">
<path d="M7.0774 12.1273C6.8056 12.1273 6.58322 11.9049 6.58322 11.6331V10.7617H9.41489V11.6331C9.41489 11.9049 9.19251 12.1273 8.92071 12.1273H7.0774ZM10.4033 10.76V11.6331C10.4033 12.4501 9.73777 13.1156 8.92071 13.1156H7.0774C6.26034 13.1156 5.59485 12.4501 5.59485 11.6331V10.76H1.06649C0.938003 10.76 0.811163 10.7485 0.687617 10.7238V15.0116C0.687617 15.5569 1.13073 16 1.67598 16H7.98505H8.0147H14.3238C14.869 16 15.3121 15.5569 15.3121 15.0116V10.7238C15.1886 10.7468 15.0618 10.76 14.9333 10.76H10.4033ZM15.9216 4.12313V8.78328C15.9216 9.1951 15.6696 9.5476 15.3121 9.69586C15.1952 9.74363 15.0667 9.77165 14.9333 9.77165H8.0147H7.98505H1.06649C0.931414 9.77165 0.804574 9.74527 0.687617 9.69586C0.330158 9.5476 0.078125 9.1951 0.078125 8.78328V4.12313C0.078125 3.57789 0.521242 3.13477 1.06649 3.13477H2.14052C2.19488 2.96675 2.26571 2.80202 2.35301 2.64058C2.40737 2.5401 2.46668 2.44126 2.53257 2.34243C2.57704 2.27654 2.62481 2.21065 2.67588 2.1464C2.98392 1.74941 3.38586 1.3936 3.87675 1.08556C4.98536 0.390405 6.4432 0.00494183 7.98505 0C7.99 0 7.99494 0 7.99988 0C8.00482 0 8.00976 0 8.01469 0C9.55656 0.00494183 11.0144 0.388757 12.123 1.08391C12.6139 1.39195 13.0158 1.74776 13.3238 2.14475C13.3733 2.209 13.421 2.27489 13.4672 2.34078C13.533 2.43797 13.5924 2.53845 13.6467 2.63894C13.734 2.80037 13.8048 2.9651 13.8592 3.13312H14.9332C15.4785 3.13477 15.9216 3.57624 15.9216 4.12313ZM12.4113 3.13477C12.3042 2.96345 12.1658 2.79872 11.9978 2.64058C11.8331 2.48574 11.642 2.33913 11.4229 2.20241C11.3933 2.18429 11.3636 2.16452 11.3323 2.1464C10.4378 1.61433 9.26005 1.32112 7.99988 1.31782C6.73971 1.31947 5.56191 1.61268 4.66744 2.1464C4.63779 2.16452 4.60649 2.18264 4.57684 2.20241C4.35775 2.33913 4.16667 2.48739 4.00194 2.64058C3.83392 2.79872 3.69554 2.96345 3.58847 3.13477H12.4113Z" fill="white"/>
</svg>
