<svg width="16" height="16" viewBox="0 0 16 16" fill="none" xmlns="http://www.w3.org/2000/svg">
<g clip-path="url(#clip0)">
<path d="M12.5161 14.0911H3.48387C3.19884 14.0911 2.96774 13.86 2.96774 13.575V12.0469C2.96774 11.319 3.39723 10.6568 4.06194 10.3601C5.99516 9.49684 5.88919 9.52603 6.03984 9.52603H6.65329C6.89084 9.52603 7.09771 9.68816 7.15448 9.91884C7.37084 10.7981 8.6291 10.7985 8.84555 9.91884C8.90232 9.68819 9.10919 9.52603 9.34674 9.52603C10.0069 9.52603 10.0408 9.51294 10.1706 9.57087L11.9381 10.3601C12.6028 10.6568 13.0323 11.319 13.0323 12.0469V13.575C13.0323 13.86 12.8012 14.0911 12.5161 14.0911ZM8.01261 1.90894C6.27423 1.90894 4.85997 3.32319 4.85997 5.06158C4.85997 6.79997 6.27423 8.21423 8.01261 8.21423C9.751 8.21423 11.1653 6.79997 11.1653 5.06158C11.1653 3.32319 9.751 1.90894 8.01261 1.90894ZM3.03929 5.28106C1.94474 5.28106 1.05426 6.17155 1.05426 7.26613C1.05426 8.36068 1.94474 9.25116 3.03929 9.25116C4.13387 9.25116 5.02435 8.36068 5.02435 7.26613C5.02432 6.17155 4.13384 5.28106 3.03929 5.28106ZM12.9607 5.28106C11.8661 5.28106 10.9756 6.17155 10.9756 7.26613C10.9756 8.36068 11.8661 9.25116 12.9607 9.25116C14.0553 9.25116 14.9457 8.36068 14.9457 7.26613C14.9457 6.17155 14.0553 5.28106 12.9607 5.28106ZM15.2548 10.0094C14.1809 9.52977 14.2066 9.52487 14.0597 9.52487C13.2909 9.52487 12.7879 9.51948 12.4477 9.51781C12.1096 9.51613 11.9976 9.96964 12.2972 10.1264C12.5425 10.2547 12.6915 10.3641 12.8684 10.5572C13.3846 11.1178 13.4327 11.7112 13.4326 12.2032C13.4326 12.3814 13.5769 12.5255 13.7551 12.5255H15.4839C15.769 12.5255 16 12.2943 16 12.0094V11.1581C16 10.6623 15.7074 10.2116 15.2548 10.0094ZM1.94032 9.52487C1.79406 9.52487 1.82284 9.5281 0.745161 10.0094C0.292581 10.2116 0 10.6623 0 11.1581V12.0094C0 12.2942 0.230968 12.5255 0.516129 12.5255H2.24477C2.42303 12.5255 2.56748 12.3811 2.56726 12.2029C2.56668 11.7092 2.61335 11.12 3.13161 10.5571C3.30765 10.365 3.45784 10.2546 3.69774 10.1286C3.99674 9.97152 3.88626 9.51932 3.54852 9.5199C3.20629 9.52048 2.70342 9.52487 1.94032 9.52487Z" fill="white"/>
</g>
<defs>
<clipPath id="clip0">
<rect width="16" height="16" fill="white"/>
</clipPath>
</defs>
</svg>
