<svg width="16" height="16" viewBox="0 0 16 16" fill="none" xmlns="http://www.w3.org/2000/svg">
<g clip-path="url(#clip0)">
<path d="M14.001 2.49902H4.00453C3.45244 2.49902 3.00488 2.94658 3.00488 3.49867C3.00488 4.05076 3.45244 4.49832 4.00453 4.49832H14.001C14.5531 4.49832 15.0007 4.05076 15.0007 3.49867C15.0007 2.94658 14.5531 2.49902 14.001 2.49902Z" fill="white"/>
<path d="M2.0049 3.49886C2.00377 3.23417 1.89772 2.98073 1.71 2.7941C1.32011 2.40652 0.69039 2.40652 0.300496 2.7941C0.112749 2.98073 0.00669296 3.23417 0.00559959 3.49886C-0.00186653 3.56362 -0.00186653 3.62903 0.00559959 3.69379C0.0169081 3.75892 0.0353391 3.82262 0.0605803 3.88372C0.0874146 3.94292 0.119185 3.99977 0.155547 4.05366C0.19144 4.1097 0.233332 4.16166 0.280503 4.20861C0.325987 4.2539 0.376251 4.29414 0.43045 4.32857C0.483088 4.3669 0.540162 4.39879 0.60039 4.42353C0.666648 4.4579 0.73728 4.48314 0.810317 4.49851C0.875075 4.50575 0.94049 4.50575 1.00525 4.49851C1.26922 4.49872 1.52257 4.39451 1.71 4.20861C1.75717 4.16166 1.79906 4.1097 1.83496 4.05366C1.87132 3.99977 1.90309 3.94292 1.92992 3.88372C1.96182 3.82337 1.98697 3.75967 2.0049 3.69379C2.01236 3.62903 2.01236 3.56362 2.0049 3.49886Z" fill="white"/>
<path d="M2.00516 7.99715C2.01259 7.93239 2.01259 7.86697 2.00516 7.80222C1.98788 7.73771 1.9627 7.6756 1.93018 7.61728C1.90444 7.55596 1.87261 7.49736 1.83522 7.44234C1.80057 7.38693 1.75852 7.33647 1.71026 7.2924C1.32037 6.90481 0.69065 6.90481 0.300756 7.2924C0.113009 7.47902 0.00695274 7.73246 0.00585938 7.99715C0.00779619 8.12888 0.0331935 8.25918 0.080833 8.38201C0.105887 8.44115 0.136001 8.498 0.170801 8.55195C0.208819 8.60628 0.252366 8.65654 0.300756 8.7019C0.344928 8.75007 0.395347 8.79212 0.450703 8.82686C0.503341 8.86522 0.560383 8.89711 0.620643 8.92182C0.681591 8.94747 0.745349 8.96593 0.810577 8.9768C0.874523 8.99114 0.939969 8.99786 1.00551 8.9968C1.07027 9.00426 1.13568 9.00426 1.20044 8.9968C1.26404 8.98589 1.32615 8.96743 1.38537 8.94182C1.44726 8.91726 1.50599 8.88537 1.56031 8.84685C1.61567 8.81211 1.66609 8.77006 1.71026 8.72189C1.75843 8.67772 1.80048 8.6273 1.83522 8.57195C1.87364 8.51934 1.90554 8.4623 1.93018 8.40201C1.96433 8.33565 1.98954 8.26505 2.00516 8.19208C2.01284 8.12732 2.01284 8.06191 2.00516 7.99715Z" fill="white"/>
<path d="M2.00522 12.4957C2.01262 12.4309 2.01262 12.3655 2.00522 12.3008C1.98794 12.2347 1.96276 12.1709 1.93024 12.1108C1.90341 12.0516 1.87164 11.9948 1.83528 11.9409C1.80054 11.8855 1.75849 11.8351 1.71032 11.7909C1.32043 11.4033 0.690711 11.4033 0.300817 11.7909C0.252646 11.8351 0.210599 11.8855 0.175861 11.9409C0.139499 11.9948 0.107729 12.0516 0.0808943 12.1108C0.0549659 12.1717 0.0365036 12.2355 0.0259136 12.3008C0.0118248 12.3648 0.00513968 12.4301 0.00592065 12.4957C0.00704526 12.7604 0.113102 13.0138 0.300817 13.2004C0.344989 13.2486 0.395409 13.2907 0.450764 13.3254C0.503402 13.3638 0.560444 13.3956 0.620705 13.4204C0.681652 13.446 0.745411 13.4645 0.810638 13.4753C0.874584 13.4897 0.94003 13.4964 1.00557 13.4953C1.07033 13.5028 1.13574 13.5028 1.2005 13.4953C1.2641 13.4844 1.32621 13.466 1.38544 13.4404C1.44732 13.4158 1.50605 13.3839 1.56037 13.3454C1.61573 13.3106 1.66615 13.2686 1.71032 13.2204C1.75849 13.1763 1.80054 13.1258 1.83528 13.0705C1.87373 13.0179 1.90563 12.9608 1.93024 12.9005C1.96436 12.8342 1.98957 12.7636 2.00522 12.6906C2.0129 12.6259 2.0129 12.5604 2.00522 12.4957Z" fill="white"/>
<path d="M15.0007 6.99756H4.00453C3.45244 6.99756 3.00488 7.44512 3.00488 7.99721C3.00488 8.54929 3.45244 8.99686 4.00453 8.99686H15.0007C15.5528 8.99686 16.0003 8.54929 16.0003 7.99721C16.0003 7.44512 15.5528 6.99756 15.0007 6.99756Z" fill="white"/>
<path d="M10.5022 11.4958H4.00453C3.45244 11.4958 3.00488 11.9434 3.00488 12.4955C3.00488 13.0476 3.45244 13.4951 4.00453 13.4951H10.5022C11.0543 13.4951 11.5019 13.0476 11.5019 12.4955C11.5019 11.9434 11.0543 11.4958 10.5022 11.4958Z" fill="white"/>
</g>
<defs>
<clipPath id="clip0">
<rect width="16" height="16" fill="white"/>
</clipPath>
</defs>
</svg>
