<svg width="15" height="11" viewBox="0 0 15 11" fill="none" xmlns="http://www.w3.org/2000/svg">
<path d="M14.2337 1.985C14.0716 1.38255 13.5966 0.90765 12.9943 0.74543C11.8938 0.444336 7.49201 0.444336 7.49201 0.444336C7.49201 0.444336 3.09036 0.444336 1.98993 0.734014C1.39915 0.896063 0.912579 1.38264 0.75053 1.985C0.460938 3.08535 0.460938 5.36733 0.460938 5.36733C0.460938 5.36733 0.460938 7.66081 0.75053 8.74966C0.91275 9.35202 1.38757 9.82692 1.99001 9.98914C3.10195 10.2903 7.49219 10.2903 7.49219 10.2903C7.49219 10.2903 11.8938 10.2903 12.9943 10.0006C13.5967 9.8385 14.0716 9.3636 14.2338 8.76124C14.5233 7.66081 14.5233 5.37891 14.5233 5.37891C14.5233 5.37891 14.5349 3.08535 14.2337 1.985ZM6.09057 7.4755V3.25915L9.75091 5.36733L6.09057 7.4755Z" fill="#204275"/>
</svg>
