<svg width="21" height="21" viewBox="0 0 21 21" fill="none" xmlns="http://www.w3.org/2000/svg">
<path d="M21 3.5H0V17.5002H21V3.5Z" fill="#F0F0F0"/>
<path d="M11.8125 3.49988H9.1875V9.18735H0V11.8124H9.1875V17.4998H11.8125V11.8124H21V9.18735H11.8125V3.49988Z" fill="#D80027"/>
<path d="M16.1514 12.9346L21 15.6283V12.9346H16.1514Z" fill="#0052B4"/>
<path d="M12.7827 12.9346L21.0001 17.4998V16.2088L15.1065 12.9346H12.7827Z" fill="#0052B4"/>
<path d="M18.8113 17.4998L12.7827 14.1503V17.4998H18.8113Z" fill="#0052B4"/>
<path d="M12.7827 12.9346L21.0001 17.4998V16.2088L15.1065 12.9346H12.7827Z" fill="#F0F0F0"/>
<path d="M12.7827 12.9346L21.0001 17.4998V16.2088L15.1065 12.9346H12.7827Z" fill="#D80027"/>
<path d="M3.70539 12.9346L0 14.9931V12.9346H3.70539Z" fill="#0052B4"/>
<path d="M8.21777 13.5151V17.4998H1.0459L8.21777 13.5151Z" fill="#0052B4"/>
<path d="M5.89366 12.9346L0 16.2088V17.4998L8.2174 12.9346H5.89366Z" fill="#D80027"/>
<path d="M4.84866 8.06508L0 5.37134V8.06508H4.84866Z" fill="#0052B4"/>
<path d="M8.2174 8.06508L0 3.49988V4.7908L5.89366 8.06508H8.2174Z" fill="#0052B4"/>
<path d="M2.18848 3.49988L8.21704 6.84938V3.49988H2.18848Z" fill="#0052B4"/>
<path d="M8.2174 8.06508L0 3.49988V4.7908L5.89366 8.06508H8.2174Z" fill="#F0F0F0"/>
<path d="M8.2174 8.06508L0 3.49988V4.7908L5.89366 8.06508H8.2174Z" fill="#D80027"/>
<path d="M17.2949 8.06517L21.0003 6.00659V8.06517H17.2949Z" fill="#0052B4"/>
<path d="M12.7827 7.48458V3.49988H19.9546L12.7827 7.48458Z" fill="#0052B4"/>
<path d="M15.1065 8.06508L21.0001 4.7908V3.49988L12.7827 8.06508H15.1065Z" fill="#D80027"/>
</svg>
