<svg width="16" height="16" viewBox="0 0 16 16" fill="none" xmlns="http://www.w3.org/2000/svg">
<g clip-path="url(#clip0)">
<path d="M14.419 6.5781C14.1088 6.77254 12.6026 7.57986 11.6508 7.57986C11.4789 7.57986 11.325 7.55382 11.1998 7.49262C10.9703 7.38108 10.8203 7.1736 10.7893 6.92316C10.7248 6.40624 10.6157 5.97744 10.4665 5.64408C10.5389 6.54774 10.6524 8.08942 10.6703 8.99174C10.6712 9.03128 10.7331 9.21354 10.7331 9.21354L10.9316 9.56598C11.0951 9.85678 11.2823 10.1319 11.4807 10.4227C11.5977 10.5947 11.7141 10.7656 11.8258 10.9401C12.0661 11.3151 12.3758 11.8906 12.2982 12.5647C12.2733 12.7748 12.265 12.987 12.2554 13.1984C12.2511 13.3186 12.2458 13.4384 12.2384 13.5569L12.1337 15.2683C12.1084 15.6819 11.7703 16 11.3681 16C11.352 16 11.3363 15.9996 11.3202 15.9987C10.8975 15.9723 10.5751 15.6016 10.6014 15.1715L10.7065 13.4601C10.7131 13.3512 10.7178 13.2409 10.7226 13.1307C10.7335 12.8798 10.7449 12.6281 10.7741 12.3807C10.7885 12.2557 10.71 12.0573 10.5403 11.7925C10.4356 11.6302 10.3274 11.4705 10.2189 11.3108C10.0108 11.0057 9.79618 10.6902 9.60032 10.342L9.377 9.9453C9.2701 9.9236 9.15976 9.90628 9.04588 9.90628C9.02712 9.90628 9.00356 9.91538 8.98352 9.918C8.9892 10.6602 8.99482 11.4028 8.99178 12.1454C8.98966 12.6519 8.74926 13.01 8.57348 13.2717C8.5395 13.3229 8.505 13.3737 8.4736 13.4262L7.14452 15.6281C6.9997 15.8681 6.74802 16 6.48978 16C6.35282 16 6.21452 15.9631 6.0889 15.8846C5.72818 15.6593 5.61474 15.1784 5.83678 14.8112L7.1645 12.612C7.20898 12.5377 7.25742 12.4649 7.30584 12.3928C7.3625 12.3073 7.44934 12.1788 7.45758 12.1332C7.46064 11.3138 7.4546 10.4891 7.448 9.66448C7.448 9.66448 7.60026 5.39538 7.61678 5.07768C7.31626 5.19358 7.01656 5.35544 6.7479 5.59806C6.07572 6.20354 5.70232 7.17054 5.63821 8.47136C5.62207 8.79294 5.36036 9.04294 5.04716 9.04294C5.03714 9.04294 5.0271 9.04294 5.01708 9.04252C4.69036 9.0252 4.43912 8.74306 4.45526 8.41104C4.5364 6.77476 5.04326 5.5252 5.96276 4.69664C6.64892 4.07814 7.54924 3.75566 8.44304 3.60722C8.65932 3.57116 8.87924 3.55818 9.09818 3.5647C9.5963 3.57942 10.1185 3.6641 10.5499 3.9323C11.2334 4.35768 11.6866 5.16928 11.8995 6.34766C12.3605 6.24524 13.208 5.9232 13.7969 5.55384C14.0739 5.37894 14.439 5.46704 14.6113 5.75004C14.7831 6.033 14.6972 6.40364 14.419 6.5781ZM9.0249 3.4006C9.94874 3.4006 10.6964 2.6393 10.6964 1.69966C10.6964 0.76084 9.94876 0 9.0249 0C8.10142 0 7.35338 0.76084 7.35338 1.69966C7.35338 2.6393 8.10144 3.4006 9.0249 3.4006ZM5.57192 9.93792L6.3863 10.3042L5.14228 13.1028L1.2998 11.3741L2.54384 8.57508L3.31984 8.92492L3.74382 7.97264L4.58962 8.35328C4.58394 8.29558 5.30238 8.66708 5.633 8.82248L5.99592 8.98568L5.57192 9.93792ZM5.11916 9.32336L4.07752 8.85376L3.9423 9.15886L4.98394 9.62718L5.11916 9.32336Z" fill="white"/>
</g>
<defs>
<clipPath id="clip0">
<rect width="16" height="16" fill="white"/>
</clipPath>
</defs>
</svg>
