<svg width="24" height="22" viewBox="0 0 24 22" fill="none" xmlns="http://www.w3.org/2000/svg">
<g clip-path="url(#clip0)" filter="url(#filter0_d)">
<path d="M18.001 2.49902H8.00453C7.45244 2.49902 7.00488 2.94658 7.00488 3.49867C7.00488 4.05076 7.45244 4.49832 8.00453 4.49832H18.001C18.5531 4.49832 19.0007 4.05076 19.0007 3.49867C19.0007 2.94658 18.5531 2.49902 18.001 2.49902Z" fill="white"/>
<path d="M6.0049 3.49886C6.00377 3.23417 5.89772 2.98073 5.71 2.7941C5.32011 2.40652 4.69039 2.40652 4.3005 2.7941C4.11275 2.98073 4.00669 3.23417 4.0056 3.49886C3.99813 3.56362 3.99813 3.62903 4.0056 3.69379C4.01691 3.75892 4.03534 3.82262 4.06058 3.88372C4.08741 3.94292 4.11918 3.99977 4.15555 4.05366C4.19144 4.1097 4.23333 4.16166 4.2805 4.20861C4.32599 4.2539 4.37625 4.29414 4.43045 4.32857C4.48309 4.3669 4.54016 4.39879 4.60039 4.42353C4.66665 4.4579 4.73728 4.48314 4.81032 4.49851C4.87508 4.50575 4.94049 4.50575 5.00525 4.49851C5.26922 4.49872 5.52257 4.39451 5.71 4.20861C5.75717 4.16166 5.79906 4.1097 5.83496 4.05366C5.87132 3.99977 5.90309 3.94292 5.92992 3.88372C5.96182 3.82337 5.98697 3.75967 6.0049 3.69379C6.01236 3.62903 6.01236 3.56362 6.0049 3.49886Z" fill="white"/>
<path d="M6.00516 7.99715C6.01259 7.93239 6.01259 7.86697 6.00516 7.80222C5.98788 7.73771 5.9627 7.6756 5.93018 7.61728C5.90444 7.55596 5.87261 7.49736 5.83522 7.44234C5.80057 7.38693 5.75852 7.33647 5.71026 7.2924C5.32037 6.90481 4.69065 6.90481 4.30076 7.2924C4.11301 7.47902 4.00695 7.73246 4.00586 7.99715C4.0078 8.12888 4.03319 8.25918 4.08083 8.38201C4.10589 8.44115 4.136 8.498 4.1708 8.55195C4.20882 8.60628 4.25237 8.65654 4.30076 8.7019C4.34493 8.75007 4.39535 8.79212 4.4507 8.82686C4.50334 8.86522 4.56038 8.89711 4.62064 8.92182C4.68159 8.94747 4.74535 8.96593 4.81058 8.9768C4.87452 8.99114 4.93997 8.99786 5.00551 8.9968C5.07027 9.00426 5.13568 9.00426 5.20044 8.9968C5.26404 8.98589 5.32615 8.96743 5.38537 8.94182C5.44726 8.91726 5.50599 8.88537 5.56031 8.84685C5.61567 8.81211 5.66609 8.77006 5.71026 8.72189C5.75843 8.67772 5.80048 8.6273 5.83522 8.57195C5.87364 8.51934 5.90554 8.4623 5.93018 8.40201C5.96433 8.33565 5.98954 8.26505 6.00516 8.19208C6.01284 8.12732 6.01284 8.06191 6.00516 7.99715Z" fill="white"/>
<path d="M6.00522 12.4957C6.01262 12.4309 6.01262 12.3655 6.00522 12.3008C5.98794 12.2347 5.96276 12.1709 5.93024 12.1108C5.90341 12.0516 5.87164 11.9948 5.83528 11.9409C5.80054 11.8855 5.75849 11.8351 5.71032 11.7909C5.32043 11.4033 4.69071 11.4033 4.30082 11.7909C4.25265 11.8351 4.2106 11.8855 4.17586 11.9409C4.1395 11.9948 4.10773 12.0516 4.08089 12.1108C4.05497 12.1717 4.0365 12.2355 4.02591 12.3008C4.01182 12.3648 4.00514 12.4301 4.00592 12.4957C4.00705 12.7604 4.1131 13.0138 4.30082 13.2004C4.34499 13.2486 4.39541 13.2907 4.45076 13.3254C4.5034 13.3638 4.56044 13.3956 4.6207 13.4204C4.68165 13.446 4.74541 13.4645 4.81064 13.4753C4.87458 13.4897 4.94003 13.4964 5.00557 13.4953C5.07033 13.5028 5.13574 13.5028 5.2005 13.4953C5.2641 13.4844 5.32621 13.466 5.38544 13.4404C5.44732 13.4158 5.50605 13.3839 5.56037 13.3454C5.61573 13.3106 5.66615 13.2686 5.71032 13.2204C5.75849 13.1763 5.80054 13.1258 5.83528 13.0705C5.87373 13.0179 5.90563 12.9608 5.93024 12.9005C5.96436 12.8342 5.98957 12.7636 6.00522 12.6906C6.0129 12.6259 6.0129 12.5604 6.00522 12.4957Z" fill="white"/>
<path d="M19.0007 6.99756H8.00453C7.45244 6.99756 7.00488 7.44512 7.00488 7.99721C7.00488 8.54929 7.45244 8.99686 8.00453 8.99686H19.0007C19.5528 8.99686 20.0003 8.54929 20.0003 7.99721C20.0003 7.44512 19.5528 6.99756 19.0007 6.99756Z" fill="white"/>
<path d="M14.5022 11.4958H8.00453C7.45244 11.4958 7.00488 11.9434 7.00488 12.4955C7.00488 13.0476 7.45244 13.4951 8.00453 13.4951H14.5022C15.0543 13.4951 15.5019 13.0476 15.5019 12.4955C15.5019 11.9434 15.0543 11.4958 14.5022 11.4958Z" fill="white"/>
</g>
<defs>
<filter id="filter0_d" x="0" y="0" width="24" height="24" filterUnits="userSpaceOnUse" color-interpolation-filters="sRGB">
<feFlood flood-opacity="0" result="BackgroundImageFix"/>
<feColorMatrix in="SourceAlpha" type="matrix" values="0 0 0 0 0 0 0 0 0 0 0 0 0 0 0 0 0 0 127 0"/>
<feOffset dy="4"/>
<feGaussianBlur stdDeviation="2"/>
<feColorMatrix type="matrix" values="0 0 0 0 0 0 0 0 0 0 0 0 0 0 0 0 0 0 0.25 0"/>
<feBlend mode="normal" in2="BackgroundImageFix" result="effect1_dropShadow"/>
<feBlend mode="normal" in="SourceGraphic" in2="effect1_dropShadow" result="shape"/>
</filter>
<clipPath id="clip0">
<rect width="16" height="16" fill="white" transform="translate(4)"/>
</clipPath>
</defs>
</svg>
